<svg width="515" height="140" viewBox="0 0 515 140" fill="none" xmlns="http://www.w3.org/2000/svg">
<g clip-path="url(#clip0_1287_1173)">
<path d="M0.400635 67.5551L2.1798 50.1434H8.73462L13.5103 2.02734H90.0144L85.1452 50.1434H91.6999L90.0144 67.5551H0.400635ZM50.9663 50.1434L53.9628 19.5326H46.0036L43.7561 42.0929L34.0174 50.1434H50.9663ZM100.139 2.21456H176.643L171.118 57.1642L158.383 67.7423H93.5837L100.139 2.21456ZM129.542 50.2371H137.595L140.591 19.7198H132.632L129.542 50.2371ZM176.616 67.7423L178.396 50.2371H184.95L189.726 2.21456H266.23L259.675 67.7423H225.403L230.178 19.7198H222.219L218.38 57.5388L203.585 67.7423H176.616ZM266.232 67.7423L272.787 2.21456H306.312L304.345 22.4345L315.77 2.21456H348.542L341.987 67.7423H307.715L310.525 40.0334L295.822 67.7423H266.232ZM355.088 2.21456H389.36L386.74 27.6768H394.793L397.32 2.21456H431.593L425.038 67.7423H390.765L393.295 42.2801H385.335L382.808 67.7423H348.533L355.088 2.21456ZM438.123 2.21456H514.625L508.07 67.7423H473.798L475.578 50.2371H467.525L465.84 67.7423H431.568L438.123 2.21456ZM477.075 34.9784C477.263 33.0437 477.45 31.1404 477.638 29.2683C477.762 27.6456 477.918 25.9606 478.105 24.2131C478.293 22.4657 478.449 20.968 478.575 19.7198H470.615L469.118 34.9784H477.075ZM4.12404 140L8.68391 94.4159H60.862L58.9077 114.147H35.0662L35.8477 106.593H30.2457L28.1611 127.823H33.698L34.5448 119.748H58.3214L57.0838 132.642L48.2246 140H4.12404ZM64.1903 106.593L65.4279 94.4159H112.525L111.352 106.593H102.168L98.8453 140H69.9879L73.3101 106.593H64.1903ZM117.083 94.4159H170.303L165.743 140H141.902L143.139 127.823H137.537L136.365 140H112.523L117.083 94.4159ZM144.182 117.208C144.312 115.862 144.442 114.538 144.572 113.236C144.659 112.107 144.768 110.935 144.898 109.719C145.028 108.504 145.137 107.462 145.224 106.593H139.687L138.645 117.208H144.182ZM170.285 140L174.845 94.4159H227.022L223.961 125.088L215.102 132.381H193.866L193.084 140H170.285ZM196.406 106.593L194.843 122.287H200.445L202.009 106.593H196.406ZM230.352 106.593L231.59 94.4159H278.685L277.513 106.593H268.329L265.006 140H236.148L239.471 106.593H230.352ZM283.243 94.4159H336.465L331.904 140H308.063L309.301 127.823H303.699L302.526 140H278.683L283.243 94.4159ZM310.342 117.208C310.473 115.862 310.604 114.538 310.733 113.236C310.821 112.107 310.929 110.935 311.058 109.719C311.189 108.504 311.297 107.462 311.385 106.593H305.847L304.806 117.208H310.342ZM336.446 140L341.005 94.4159H394.226L389.665 140H365.824L369.147 106.593H363.545L360.288 140H336.446ZM398.768 94.4159H451.987L448.145 132.642L439.286 140H394.208L398.768 94.4159ZM419.221 127.823H424.823L426.908 106.593H421.372L419.221 127.823ZM452.1 140L456.658 94.4159H510.858L508.967 113.692L501.021 117.208L508.382 119.227L507.079 132.642L498.22 140H452.1ZM483.759 122.287H478.22L477.635 127.823H483.237L483.759 122.287ZM479.784 106.593L479.199 112.129H484.8L485.322 106.593H479.784Z" fill="url(#paint0_linear_1287_1173)"/>
</g>
<defs>
<linearGradient id="paint0_linear_1287_1173" x1="0.400635" y1="71.0138" x2="514.625" y2="71.0138" gradientUnits="userSpaceOnUse">
<stop stop-color="#41828B"/>
<stop offset="1" stop-color="#66C3D0"/>
</linearGradient>
<clipPath id="clip0_1287_1173">
<rect width="515" height="140" fill="white"/>
</clipPath>
</defs>
</svg>
