<svg width="123" height="50" viewBox="0 0 123 50" fill="none" xmlns="http://www.w3.org/2000/svg">
<path d="M0.210933 46.25L0.0991364 9.67479L5.37393 7.05284V43.6484L0.210933 46.25Z" fill="black"/>
<path d="M10.5979 48.811L10.4556 9.82723C10.4556 9.82723 10.4251 5.65041 13.2302 3.17073C16.0353 0.691056 19.1453 0.579268 20.9849 1.40244C22.8143 2.22561 32.7845 6.83943 36.5958 8.88211C37.5817 9.41057 38.5065 9.80691 39.5127 11.5041C40.5087 13.1911 40.4274 15.1626 40.5087 16.2398C40.6002 17.4898 40.651 41.0163 40.651 41.0163L35.3864 43.5874C35.3864 43.5874 35.4677 22.8963 35.3457 16.128C35.3355 15.376 35.1729 14.6037 33.4553 13.7805C31.7377 12.9573 22.8346 8.6687 18.9827 6.92073C18.068 6.50406 15.8829 6.98171 15.8625 9.46138C15.8422 11.9411 15.8015 46.1992 15.8015 46.1992L10.5979 48.811Z" fill="black"/>
<path d="M51.0685 31.8496V18.2825H53.3654L59.6565 27.8455V18.2825H61.9534V31.8496H59.6565L53.3654 22.2866V31.8496H51.0685Z" fill="black"/>
<path d="M64.5959 31.8496V18.2825H72.7673V20.5488H66.8725V23.9329H71.6391V26.1992H66.8725V31.8496H64.5959Z" fill="black"/>
<path d="M80.2068 32.1341C78.8449 32.1341 77.6863 31.8394 76.7208 31.2398C75.7553 30.6504 75.0134 29.8171 74.495 28.7602C73.9767 27.7033 73.7226 26.4634 73.7226 25.0711C73.7226 23.6687 73.9767 22.439 74.495 21.3821C75.0134 20.3252 75.7553 19.4919 76.7208 18.9024C77.6863 18.313 78.8551 18.0081 80.2068 18.0081C81.772 18.0081 83.0729 18.3943 84.1197 19.1768C85.1666 19.9594 85.8983 21.0163 86.315 22.3374L84.0283 22.9675C83.764 22.0833 83.3168 21.3923 82.6765 20.8943C82.0464 20.3963 81.2232 20.1423 80.2068 20.1423C79.2921 20.1423 78.54 20.3455 77.9302 20.752C77.3204 21.1585 76.8733 21.7378 76.5684 22.4695C76.2635 23.2114 76.111 24.0752 76.1008 25.061C76.1008 26.0569 76.2533 26.9207 76.5582 27.6524C76.8631 28.3943 77.3204 28.9634 77.9302 29.3699C78.54 29.7764 79.3023 29.9797 80.2068 29.9797C81.2232 29.9797 82.0362 29.7256 82.6765 29.2276C83.3067 28.7297 83.764 28.0386 84.0283 27.1545L86.315 27.7846C85.8983 29.1057 85.1666 30.1626 84.1197 30.9451C83.0729 31.748 81.772 32.1341 80.2068 32.1341Z" fill="black"/>
<path d="M88.3884 31.8496V18.2825H90.6548V24.5732L96.0719 18.2825H98.8566L93.0229 24.939L99.253 31.8598H96.3666L90.6446 25.5285V31.8598H88.3884V31.8496Z" fill="black"/>
<path d="M100.574 31.8496V18.2825H109.335V20.4167H102.841V23.7602H108.207V25.8943H102.841V29.7256H109.335V31.8598H100.574V31.8496Z" fill="black"/>
<path d="M114.905 31.8496V26.2907L110.29 18.2825H112.943L116.063 23.689L119.173 18.2825H121.826L117.222 26.2907V31.8496H114.905Z" fill="black"/>
</svg>
